<?xml version="1.0" standalone="no"?><!DOCTYPE svg PUBLIC "-//W3C//DTD SVG 1.1//EN" "http://www.w3.org/Graphics/SVG/1.1/DTD/svg11.dtd"><svg class="icon" width="128px" height="128.00px" viewBox="0 0 1024 1024" version="1.1" xmlns="http://www.w3.org/2000/svg"><path fill="#1296db" d="M512 0C229.376 0 0 229.376 0 512c0 220.16 139.264 407.552 334.848 480.256 12.288 4.096 24.576 8.192 36.864 12.288 45.056 12.288 92.16 19.456 140.288 19.456 63.488 0 122.88-11.264 179.2-32.768 13.312-5.12 26.624-10.24 39.936-16.384C904.192 892.928 1024 715.776 1024 512 1024 229.376 794.624 0 512 0zM710.656 861.184c-6.144 10.24-9.216 22.528-9.216 34.816l0 49.152c-3.072 1.024-6.144 3.072-9.216 4.096-55.296 22.528-115.712 35.84-179.2 35.84-48.128 0-94.208-7.168-138.24-20.48-1.024 0-3.072-1.024-4.096-1.024l0-72.704c0-5.12-2.048-11.264-6.144-15.36l-93.184-90.112c-7.168-7.168-11.264-16.384-11.264-25.6L260.096 608.256c0-15.36 2.048-30.72 5.12-45.056 7.168-28.672 28.672-51.2 57.344-58.368l6.144-1.024c0 79.872 1.024 83.968 1.024 86.016 1.024 10.24 10.24 18.432 20.48 18.432 1.024 0 2.048 0 3.072 0 11.264-2.048 19.456-11.264 17.408-22.528 0-5.12-1.024-40.96-1.024-102.4 1.024-3.072 1.024-7.168 0-10.24 0 0 0 0 0 0 0-62.464 0-149.504 1.024-256 0-24.576 19.456-44.032 44.032-44.032 24.576 0 44.032 19.456 44.032 44.032l0 268.288c0 11.264 9.216 20.48 20.48 20.48s20.48-9.216 20.48-20.48l0-86.016 80.896 27.648 0 120.832c0 11.264 9.216 20.48 20.48 20.48 11.264 0 20.48-9.216 20.48-20.48L621.568 440.32l53.248 18.432 0 128c0 11.264 9.216 20.48 20.48 20.48s20.48-9.216 20.48-20.48L715.776 473.088l33.792 11.264c11.264 4.096 18.432 14.336 18.432 25.6L768 747.52c0 11.264-3.072 22.528-9.216 32.768L710.656 861.184zM742.4 924.672l0-28.672c0-5.12 1.024-9.216 4.096-13.312l48.128-80.896c10.24-16.384 15.36-34.816 15.36-53.248L809.984 509.952c0-28.672-18.432-55.296-46.08-64.512l-264.192-92.16L499.712 215.04c0-47.104-37.888-84.992-84.992-84.992-47.104 0-84.992 37.888-84.992 84.992C327.68 327.68 327.68 405.504 327.68 460.8l-16.384 4.096C268.288 476.16 235.52 509.952 225.28 552.96c-5.12 22.528-6.144 41.984-6.144 55.296l0 150.528c0 20.48 8.192 40.96 23.552 55.296l87.04 83.968 0 49.152C158.72 875.52 39.936 707.584 39.936 512 39.936 251.904 251.904 39.936 512 39.936S984.064 251.904 984.064 512C984.064 689.152 886.784 842.752 742.4 924.672z" /></svg>