<?xml version="1.0" standalone="no"?><!DOCTYPE svg PUBLIC "-//W3C//DTD SVG 1.1//EN" "http://www.w3.org/Graphics/SVG/1.1/DTD/svg11.dtd"><svg t="1563944931516" class="icon" viewBox="0 0 1024 1024" version="1.1" xmlns="http://www.w3.org/2000/svg" p-id="32448" xmlns:xlink="http://www.w3.org/1999/xlink" width="128" height="128"><defs><style type="text/css"></style></defs><path d="M512.8 512.8m-510.4 0a510.4 510.4 0 1 0 1020.8 0 510.4 510.4 0 1 0-1020.8 0Z" fill="#1296db" p-id="32449"></path><path d="M676 462.4c8-1.6 15.2-3.2 21.6-4.8 13.6-3.2 28-6.4 41.6-8.8 3.2-0.8 4.8-0.8 3.2-4.8-29.6-96-93.6-157.6-192-176.8-84-16.8-158.4 8-220 68-47.2 47.2-70.4 104.8-71.2 172 0 20.8-16 36.8-36 36.8s-35.2-16-35.2-36.8c0.8-84 30.4-157.6 88-218.4 48.8-52 109.6-84 180-93.6 104-15.2 195.2 14.4 271.2 88 41.6 40 68.8 88.8 84 144.8 0.8 4 2.4 4.8 6.4 4l52.8-12h2.4c-0.8 4-2.4 6.4-4 9.6-20.8 44-42.4 88-64 132-1.6 3.2-2.4 4.8-6.4 1.6-40-32.8-80-65.6-120.8-97.6 0.8-1.6 0-1.6-1.6-3.2zM501.6 591.2c34.4 0 62.4 27.2 62.4 62.4 0 34.4-28 61.6-63.2 61.6-34.4 0-60.8-28-60.8-62.4-0.8-34.4 27.2-61.6 61.6-61.6z" fill="#FEFEFE" p-id="32450"></path></svg>
